<svg xmlns="http://www.w3.org/2000/svg" viewBox="0 0 64 64" width="64" height="64">
  <defs>
    <linearGradient id="bg" x1="0%" y1="0%" x2="100%" y2="100%">
      <stop offset="0%" stop-color="#1a2540"/>
      <stop offset="100%" stop-color="#0f1720"/>
    </linearGradient>
    <linearGradient id="cGrad" x1="0%" y1="0%" x2="100%" y2="100%">
      <stop offset="0%" stop-color="#7c90ff"/>
      <stop offset="100%" stop-color="#5b72ff"/>
    </linearGradient>
  </defs>

  <!-- Background rounded square -->
  <rect width="64" height="64" rx="14" ry="14" fill="url(#bg)"/>

  <!-- Bold "C" letterform -->
  <path d="M38 16
    C28 16 20 23.2 20 32
    C20 40.8 28 48 38 48
    C42 48 45.6 46.8 48.2 44.6
    L44 40
    C42.2 41.6 40.2 42.4 38 42.4
    C31.4 42.4 26 37.8 26 32
    C26 26.2 31.4 21.6 38 21.6
    C40.2 21.6 42.2 22.4 44 24
    L48.2 19.4
    C45.6 17.2 42 16 38 16Z"
    fill="url(#cGrad)"/>

  <!-- AI spark — three dots in top-right -->
  <circle cx="50" cy="12" r="2.5" fill="#5b72ff" opacity="0.9"/>
  <circle cx="56" cy="16" r="1.8" fill="#7c90ff" opacity="0.7"/>
  <circle cx="54" cy="8"  r="1.4" fill="#a0b0ff" opacity="0.6"/>
</svg>
